<?xml version="1.0" encoding="utf-8"?>
<!DOCTYPE svg PUBLIC "-//W3C//DTD SVG 1.1//EN" "http://www.w3.org/Graphics/SVG/1.1/DTD/svg11.dtd">
<svg version="1.1" xmlns="http://www.w3.org/2000/svg" xmlns:xlink="http://www.w3.org/1999/xlink" x="0px" y="0px" width="1024px" height="1024px" viewBox="0 0 1024 1024" enable-background="new 0 0 1024 1024" xml:space="preserve">
<metadata> Free Icon Download -- www.onlinewebfonts.com </metadata>

  <path d="M167.384615 452.923077l665.6 0L832.984615 385.969231 167.384615 385.969231 167.384615 452.923077 167.384615 452.923077 167.384615 452.923077zM167.384615 452.923077" />
<path d="M313.107692 149.661538l0 133.907692C313.107692 303.261538 328.861538 315.076923 344.615385 315.076923c19.692308 0 31.507692-15.753846 31.507692-31.507692L376.123077 149.661538C376.123077 133.907692 364.307692 118.153846 344.615385 118.153846 328.861538 118.153846 313.107692 133.907692 313.107692 149.661538L313.107692 149.661538 313.107692 149.661538zM313.107692 555.323077l0 133.907692c0 15.753846 15.753846 31.507692 31.507692 31.507692 19.692308 0 31.507692-15.753846 31.507692-31.507692l0-133.907692c0-15.753846-15.753846-31.507692-31.507692-31.507692C328.861538 523.815385 313.107692 539.569231 313.107692 555.323077L313.107692 555.323077 313.107692 555.323077zM313.107692 555.323077" />
<path d="M202.830769 94.523077C202.830769 78.769231 214.646154 63.015385 234.338462 63.015385l555.323077 0c19.692308 0 31.507692 15.753846 31.507692 31.507692l0 831.015385c0 15.753846-15.753846 31.507692-31.507692 31.507692L234.338462 957.046154c-19.692308 0-31.507692-15.753846-31.507692-31.507692L202.830769 94.523077 202.830769 94.523077 202.830769 94.523077zM135.876923 94.523077l0 831.015385C135.876923 980.676923 179.2 1024 234.338462 1024l555.323077 0c55.138462 0 98.461538-43.323077 98.461538-94.523077L888.123077 94.523077C884.184615 43.323077 840.861538 0 785.723077 0L234.338462 0C179.2 0 135.876923 43.323077 135.876923 94.523077L135.876923 94.523077 135.876923 94.523077zM135.876923 94.523077" />


</svg>