<?xml version="1.0" encoding="UTF-8" standalone="no"?>
<svg
   xmlns:dc="http://purl.org/dc/elements/1.1/"
   xmlns:cc="http://creativecommons.org/ns#"
   xmlns:rdf="http://www.w3.org/1999/02/22-rdf-syntax-ns#"
   xmlns:svg="http://www.w3.org/2000/svg"
   xmlns="http://www.w3.org/2000/svg"
   xmlns:sodipodi="http://sodipodi.sourceforge.net/DTD/sodipodi-0.dtd"
   xmlns:inkscape="http://www.inkscape.org/namespaces/inkscape"
   enable-background="new 0 0 64 64"
   height="64px"
   id="Layer_1"
   version="1.1"
   viewBox="0 0 64 64"
   width="64px"
   xml:space="preserve"
   inkscape:version="0.91 r13725"
   sodipodi:docname="fridge.svg"><metadata
     id="metadata13"><rdf:RDF><cc:Work
         rdf:about=""><dc:format>image/svg+xml</dc:format><dc:type
           rdf:resource="http://purl.org/dc/dcmitype/StillImage" /></cc:Work></rdf:RDF></metadata><defs
     id="defs11" /><sodipodi:namedview
     pagecolor="#ffffff"
     bordercolor="#666666"
     borderopacity="1"
     objecttolerance="10"
     gridtolerance="10"
     guidetolerance="10"
     inkscape:pageopacity="0"
     inkscape:pageshadow="2"
     inkscape:window-width="1440"
     inkscape:window-height="897"
     id="namedview9"
     showgrid="false"
     inkscape:zoom="3.6875"
     inkscape:cx="44.745763"
     inkscape:cy="32"
     inkscape:window-x="-8"
     inkscape:window-y="-8"
     inkscape:window-maximized="1"
     inkscape:current-layer="g3" /><g
     id="g3"
     style="fill:#000000;fill-opacity:1"><path
       d="M50.219,0.163H13.782c-2.459,0-4.454,2.138-4.454,4.775v16.559h45.343V4.938   C54.672,2.301,52.678,0.163,50.219,0.163z M19.936,14.043c0,0.771-0.691,1.395-1.545,1.395c-0.853,0-1.544-0.624-1.544-1.395V7.784   c0-0.771,0.691-1.395,1.544-1.395c0.854,0,1.545,0.624,1.545,1.395V14.043z"
       fill="#241F20"
       id="path5"
       style="fill:#555555;fill-opacity:1" /><path
       d="M9.329,59.727c0,2.271,1.995,4.111,4.454,4.111h36.438c2.457,0,4.451-1.84,4.451-4.111V24.593H9.329V59.727   z M16.847,34.061c0-1.02,0.691-1.847,1.544-1.847c0.854,0,1.545,0.827,1.545,1.847v8.287c0,1.02-0.691,1.846-1.545,1.846   c-0.853,0-1.544-0.826-1.544-1.846V34.061z"
       fill="#241F20"
       id="path7"
       style="fill:#555555;fill-opacity:1" /></g></svg>